<svg width="50" height="50" viewBox="0 0 50 50" fill="none" xmlns="http://www.w3.org/2000/svg">
<path d="M22.4622 31.9331V31.9654H5.93951V29.2656H22.4622V31.8877C22.4622 31.9027 22.4622 31.9179 22.4622 31.9331Z" fill="white"/>
<path d="M25 14.5788C26.459 14.5788 27.6458 15.7657 27.6458 17.2246C27.6458 18.6836 26.459 19.8705 25 19.8705C23.541 19.8705 22.3542 18.6836 22.3542 17.2246C22.3542 15.7657 23.541 14.5788 25 14.5788Z" fill="white"/>
<path d="M48.3801 9.44926V24.2052L42.703 18.5281C41.8973 17.7224 40.826 17.2786 39.6867 17.2786C38.5474 17.2786 37.4761 17.7224 36.6705 18.5281L24.082 31.1167V28.4558C24.082 28.0087 23.7191 27.6458 23.2721 27.6458H20.1522L17.6488 25.1426C16.8432 24.337 15.7719 23.8932 14.6326 23.8932C13.4933 23.8932 12.422 24.337 11.6163 25.1426L9.11334 27.6457H5.12955C4.68249 27.6457 4.3196 28.0086 4.3196 28.4557V32.4395L1.61991 35.1393V9.44926C1.61991 7.99026 2.80674 6.80344 4.26573 6.80344H45.7344C47.1933 6.80344 48.3801 7.99026 48.3801 9.44926ZM31.8574 17.2246C31.8574 16.7776 31.4945 16.4147 31.0474 16.4147H29.1878C29.0766 15.8391 28.8509 15.3056 28.5333 14.8369L29.8488 13.5216C30.1652 13.2052 30.1652 12.6922 29.8488 12.3759C29.5322 12.0594 29.0193 12.0594 28.703 12.3759L27.3877 13.6912C26.919 13.3737 26.3845 13.1481 25.81 13.0368V11.1771C25.81 10.73 25.4471 10.3671 25 10.3671C24.5529 10.3671 24.19 10.73 24.19 11.1771V13.0367C23.6155 13.148 23.0809 13.3736 22.6123 13.6911L21.297 12.3758C20.9805 12.0593 20.4676 12.0593 20.1512 12.3758C19.8348 12.6922 19.8348 13.2052 20.1512 13.5215L21.4667 14.8368C21.1491 15.3055 20.9235 15.839 20.8122 16.4146H18.9526C18.5055 16.4146 18.1426 16.7775 18.1426 17.2245C18.1426 17.6716 18.5055 18.0345 18.9526 18.0345H20.8122C20.9234 18.6101 21.1491 19.1436 21.4667 19.6123L20.1512 20.9276C19.8348 21.244 19.8348 21.757 20.1512 22.0733C20.3089 22.2321 20.5164 22.3109 20.7237 22.3109C20.9311 22.3109 21.1384 22.2321 21.2972 22.0733L22.6126 20.758C23.0813 21.0756 23.6158 21.3012 24.1903 21.4124V23.2721C24.1903 23.7191 24.5532 24.082 25.0003 24.082C25.4474 24.082 25.8102 23.7191 25.8102 23.2721V21.4124C26.3848 21.3012 26.9193 21.0756 27.388 20.758L28.7033 22.0733C28.8621 22.2321 29.0694 22.3109 29.2768 22.3109C29.4841 22.3109 29.6916 22.2321 29.8493 22.0733C30.1657 21.7569 30.1657 21.2439 29.8493 20.9276L28.5338 19.6123C28.8513 19.1436 29.0769 18.6101 29.1883 18.0345H31.0479C31.4946 18.0346 31.8574 17.6717 31.8574 17.2246Z" fill="white"/>
<path d="M50 9.44923V40.5507C50 42.9028 48.0864 44.8164 45.7344 44.8164H4.26563C1.91359 44.8164 0 42.9028 0 40.5507V37.095V9.44923C0 7.09718 1.91359 5.18359 4.26563 5.18359H45.7343C48.0863 5.18359 50 7.09718 50 9.44923ZM48.3801 40.5507V26.4956L41.5572 19.6738C41.0583 19.1739 40.3931 18.8985 39.6868 18.8985C38.9806 18.8985 38.3153 19.1739 37.8165 19.6738L24.9978 32.4914L35.703 43.1965H45.7344C47.1933 43.1965 48.3801 42.0096 48.3801 40.5507ZM48.3801 24.2052V9.44923C48.3801 7.99023 47.1933 6.80341 45.7343 6.80341H4.26563C2.80664 6.80341 1.61981 7.99023 1.61981 9.44923V35.1392L4.3196 32.4394V28.4557C4.3196 28.0086 4.68249 27.6457 5.12955 27.6457H9.11334L11.6167 25.1425C12.4224 24.3369 13.4936 23.893 14.633 23.893C15.7723 23.893 16.8436 24.3369 17.6492 25.1425L20.1526 27.6457H23.2725C23.7195 27.6457 24.0824 28.0086 24.0824 28.4557V31.1165L36.671 18.528C37.4766 17.7223 38.5479 17.2785 39.6872 17.2785C40.8265 17.2785 41.8978 17.7223 42.7035 18.528L48.3801 24.2052ZM4.26563 43.1965H33.4114L23.6858 33.4707C23.5649 33.5431 23.4234 33.5852 23.2722 33.5852H5.46546L1.61991 37.4309V40.5507C1.61991 42.0096 2.80674 43.1965 4.26563 43.1965ZM22.4622 31.9654V31.933C22.4622 31.9179 22.4622 31.9028 22.4622 31.8877V29.2656H5.93951V31.9654H22.4622V31.9654ZM11.405 27.6457H17.8606L16.5032 26.2883C16.0044 25.7883 15.3391 25.5129 14.6329 25.5129C13.9266 25.5129 13.2614 25.7883 12.7625 26.2883L11.405 27.6457Z" fill="#535757"/>
<path d="M48.3801 26.4957V40.5508C48.3801 42.0097 47.1933 43.1966 45.7343 43.1966H35.7029L24.9978 32.4914L37.8165 19.6738C38.3153 19.1739 38.9806 18.8985 39.6868 18.8985C40.3931 18.8985 41.0583 19.1739 41.5572 19.6738L48.3801 26.4957Z" fill="#C2E95D"/>
<path d="M33.4114 43.1965H4.26563C2.80664 43.1965 1.61981 42.0097 1.61981 40.5507V37.4308L5.46536 33.5852H23.2722C23.4233 33.5852 23.5649 33.5431 23.6858 33.4708L33.4114 43.1965ZM24.082 36.2311C24.082 35.784 23.7191 35.4211 23.2721 35.4211H5.12955C4.68249 35.4211 4.3196 35.784 4.3196 36.2311C4.3196 36.6781 4.68249 37.041 5.12955 37.041H23.2722C23.7192 37.041 24.082 36.6781 24.082 36.2311ZM17.1707 39.6868C17.1707 39.2398 16.8078 38.8769 16.3607 38.8769H5.12955C4.68249 38.8769 4.3196 39.2398 4.3196 39.6868C4.3196 40.1339 4.68249 40.4968 5.12955 40.4968H16.3606C16.8078 40.4967 17.1707 40.1339 17.1707 39.6868Z" fill="#C2E95D"/>
<path d="M31.0475 16.4147C31.4946 16.4147 31.8575 16.7776 31.8575 17.2246C31.8575 17.6717 31.4946 18.0346 31.0475 18.0346H29.1879C29.0767 18.6102 28.851 19.1437 28.5334 19.6123L29.8489 20.9276C30.1653 21.2441 30.1653 21.757 29.8489 22.0734C29.6912 22.2322 29.4837 22.311 29.2764 22.311C29.069 22.311 28.8617 22.2322 28.7029 22.0734L27.3876 20.7581C26.9189 21.0756 26.3844 21.3013 25.8099 21.4125V23.2722C25.8099 23.7192 25.447 24.0821 24.9999 24.0821C24.5528 24.0821 24.19 23.7192 24.19 23.2722V21.4125C23.6154 21.3013 23.0808 21.0756 22.6122 20.7581L21.2969 22.0734C21.1381 22.2322 20.9308 22.311 20.7234 22.311C20.5161 22.311 20.3086 22.2322 20.1509 22.0734C19.8345 21.7569 19.8345 21.244 20.1509 20.9276L21.4664 19.6123C21.1488 19.1437 20.9232 18.6102 20.8119 18.0346H18.9523C18.5052 18.0346 18.1423 17.6717 18.1423 17.2246C18.1423 16.7776 18.5052 16.4147 18.9523 16.4147H20.8119C20.9231 15.839 21.1488 15.3056 21.4664 14.8369L20.1509 13.5216C19.8345 13.2051 19.8345 12.6922 20.1509 12.3758C20.4675 12.0594 20.9804 12.0594 21.2967 12.3758L22.612 13.6912C23.0807 13.3737 23.6152 13.1481 24.1898 13.0368V11.1771C24.1898 10.73 24.5526 10.3671 24.9997 10.3671C25.4468 10.3671 25.8097 10.73 25.8097 11.1771V13.0367C26.3842 13.148 26.9188 13.3736 27.3874 13.6911L28.7027 12.3757C29.0192 12.0593 29.5321 12.0593 29.8485 12.3757C30.1649 12.6922 30.1649 13.2051 29.8485 13.5215L28.533 14.8368C28.8505 15.3055 29.0762 15.8389 29.1875 16.4146L31.0475 16.4147ZM27.6457 17.2246C27.6457 15.7656 26.4589 14.5788 24.9999 14.5788C23.5409 14.5788 22.3541 15.7656 22.3541 17.2246C22.3541 18.6836 23.5409 19.8704 24.9999 19.8704C26.4589 19.8704 27.6457 18.6836 27.6457 17.2246Z" fill="#535757"/>
<path d="M23.2722 35.4211C23.7192 35.4211 24.0821 35.784 24.0821 36.2311C24.0821 36.6781 23.7192 37.041 23.2722 37.041H5.12956C4.68249 37.041 4.3196 36.6781 4.3196 36.2311C4.3196 35.784 4.68249 35.4211 5.12956 35.4211H23.2722Z" fill="#535757"/>
<path d="M17.8607 27.6457H11.405L12.7623 26.2883C13.2612 25.7884 13.9264 25.513 14.6327 25.513C15.3389 25.513 16.0042 25.7884 16.503 26.2883L17.8607 27.6457Z" fill="#C2E95D"/>
<path d="M16.3607 38.8769C16.8078 38.8769 17.1707 39.2398 17.1707 39.6868C17.1707 40.1339 16.8078 40.4968 16.3607 40.4968H5.12956C4.68249 40.4968 4.3196 40.1339 4.3196 39.6868C4.3196 39.2398 4.68249 38.8769 5.12956 38.8769H16.3607Z" fill="#535757"/>
</svg>
