<svg width="50" height="50" viewBox="0 0 50 50" fill="none" xmlns="http://www.w3.org/2000/svg">
<path d="M34.4946 35.3703H22.6725L24.8026 26.1003H32.3645L34.4946 35.3703Z" fill="#EFEFEF"/>
<path d="M38.1968 34.6158H18.9703C18.5536 34.6158 18.2158 34.9536 18.2158 35.3703C18.2158 35.787 18.5536 36.1248 18.9703 36.1248H38.1968C38.6136 36.1248 38.9513 35.787 38.9513 35.3703C38.9513 34.9536 38.6135 34.6158 38.1968 34.6158Z" fill="#DDDDDD"/>
<path d="M7.16699 27.1992V3.1376C7.16699 1.96035 8.12129 1.00606 9.29854 1.00606H47.8684C49.0456 1.00606 49.9999 1.96035 49.9999 3.1376V22.8163L7.16699 27.1992Z" fill="#3498AC"/>
<path d="M50 22.8164V3.1376C50 1.96035 49.0456 1.00606 47.8685 1.00606H44.8504C46.0276 1.00606 46.9819 1.96045 46.9819 3.1376V27.1992L50 22.8164Z" fill="#288A9A"/>
<path d="M7.16699 22.8164V27.1978C7.16699 28.3758 8.1207 29.3308 9.29707 29.3308H47.8698C49.0463 29.3308 49.9999 28.3758 49.9999 27.1978V22.8164H7.16699Z" fill="#F7F7F7"/>
<path d="M46.982 22.8164V27.1978C46.982 28.3758 46.0282 29.3308 44.8519 29.3308H47.87C49.0464 29.3308 50 28.3758 50 27.1978V22.8164H46.982Z" fill="#EFEFEF"/>
<path d="M0 44.4744V17.3363C0 16.896 0.356934 16.5392 0.797168 16.5392H21.7695C22.2098 16.5392 22.5667 16.8961 22.5667 17.3363V44.4744C22.5667 44.9147 22.2098 45.2716 21.7695 45.2716H0.797168C0.356934 45.2716 0 44.9146 0 44.4744H0Z" fill="#FFE66B"/>
<path d="M19.797 40.4319H2.76972V19.299H19.797V40.4319Z" fill="#3498AC"/>
<path d="M16.7789 19.299H19.797V40.4319H16.7789V19.299Z" fill="#288A9A"/>
<path d="M17.3122 47.4707V28.7212C17.3122 27.8799 17.9943 27.198 18.8355 27.198H27.073C27.9143 27.198 28.5962 27.88 28.5962 28.7212V47.4707C28.5962 48.312 27.9142 48.9939 27.073 48.9939H18.8355C17.9943 48.9939 17.3122 48.312 17.3122 47.4707V47.4707Z" fill="#C9F0FF"/>
<path d="M27.0729 27.198H24.0549C24.8962 27.198 25.5781 27.88 25.5781 28.7212V47.4707C25.5781 48.312 24.8961 48.9939 24.0549 48.9939H27.0729C27.9143 48.9939 28.5962 48.3119 28.5962 47.4707V28.7212C28.5963 27.88 27.9143 27.198 27.0729 27.198Z" fill="#B5EAFF"/>
<path d="M12.0684 42.0818H10.4983C10.0816 42.0818 9.74384 42.4196 9.74384 42.8363C9.74384 43.253 10.0816 43.5908 10.4983 43.5908H12.0684C12.4851 43.5908 12.8228 43.253 12.8228 42.8363C12.8229 42.4196 12.4851 42.0818 12.0684 42.0818V42.0818Z" fill="#3498AC"/>
<path d="M23.6194 28.7215H22.289C21.8723 28.7215 21.5345 29.0593 21.5345 29.476C21.5345 29.8927 21.8723 30.2305 22.289 30.2305H23.6193C24.036 30.2305 24.3738 29.8927 24.3738 29.476C24.3739 29.0593 24.0361 28.7215 23.6194 28.7215V28.7215Z" fill="#3498AC"/>
<path d="M17.3122 45.7645H28.5962V47.4906C28.5962 48.3209 27.9123 48.9939 27.0686 48.9939H18.8399C17.9962 48.9939 17.3122 48.3209 17.3122 47.4906V45.7645Z" fill="#3498AC"/>
<path d="M25.5781 45.7645V47.4906C25.5781 48.3209 24.8943 48.9939 24.0505 48.9939H27.0686C27.9122 48.9939 28.5962 48.3209 28.5962 47.4906V45.7645H25.5781Z" fill="#288A9A"/>
</svg>
