<svg width="50" height="50" viewBox="0 0 50 50" fill="none" xmlns="http://www.w3.org/2000/svg">
<path d="M48.4375 9.375H6.25V4.6875C6.25 3.8587 6.57924 3.06384 7.16529 2.47779C7.75134 1.89174 8.5462 1.5625 9.375 1.5625H45.3125C46.1413 1.5625 46.9362 1.89174 47.5222 2.47779C48.1083 3.06384 48.4375 3.8587 48.4375 4.6875V9.375Z" fill="#3B5892"/>
<path d="M44.5312 6.25V1.5625H9.375C8.5462 1.5625 7.75134 1.89174 7.16529 2.47779C6.57924 3.06384 6.25 3.8587 6.25 4.6875V6.25H44.5312Z" fill="#4C6CB5"/>
<path d="M48.4375 9.375V37.5C48.4375 38.3288 48.1083 39.1237 47.5222 39.7097C46.9362 40.2958 46.1413 40.625 45.3125 40.625H9.375C8.5462 40.625 7.75134 40.2958 7.16529 39.7097C6.57924 39.1237 6.25 38.3288 6.25 37.5V9.375H48.4375Z" fill="#E2E7F6"/>
<path d="M28.9062 4.6875H44.5312V6.25H28.9062V4.6875Z" fill="#78A0D4"/>
<path d="M43.75 17.1875H1.5625V12.5C1.5625 11.6712 1.89174 10.8763 2.47779 10.2903C3.06384 9.70424 3.8587 9.375 4.6875 9.375H40.625C41.4538 9.375 42.2487 9.70424 42.8347 10.2903C43.4208 10.8763 43.75 11.6712 43.75 12.5V17.1875Z" fill="#5E87CA"/>
<path d="M39.8438 14.0625V9.375H4.6875C3.8587 9.375 3.06384 9.70424 2.47779 10.2903C1.89174 10.8763 1.5625 11.6712 1.5625 12.5V14.0625H39.8438Z" fill="#78A0D4"/>
<path d="M43.75 17.1875V45.3125C43.75 46.1413 43.4208 46.9362 42.8347 47.5222C42.2487 48.1083 41.4538 48.4375 40.625 48.4375H4.6875C3.8587 48.4375 3.06384 48.1083 2.47779 47.5222C1.89174 46.9362 1.5625 46.1413 1.5625 45.3125V17.1875H43.75Z" fill="#C8CDED"/>
<path d="M1.5625 17.1875H41.4062V44.5312H1.5625V17.1875Z" fill="#E2E7F6"/>
<path d="M14.0625 20.3125H6.25C5.38706 20.3125 4.6875 21.0121 4.6875 21.875V29.6875C4.6875 30.5504 5.38706 31.25 6.25 31.25H14.0625C14.9254 31.25 15.625 30.5504 15.625 29.6875V21.875C15.625 21.0121 14.9254 20.3125 14.0625 20.3125Z" fill="#5E87CA"/>
<path d="M6.25 20.3125C5.8356 20.3125 5.43817 20.4771 5.14515 20.7701C4.85212 21.0632 4.6875 21.4606 4.6875 21.875V28.9062H11.7188C12.1332 28.9062 12.5306 28.7416 12.8236 28.4486C13.1166 28.1556 13.2812 27.7582 13.2812 27.3438V20.3125H6.25Z" fill="#78A0D4"/>
<path d="M14.0625 34.375H6.25C5.38706 34.375 4.6875 35.0746 4.6875 35.9375V43.75C4.6875 44.6129 5.38706 45.3125 6.25 45.3125H14.0625C14.9254 45.3125 15.625 44.6129 15.625 43.75V35.9375C15.625 35.0746 14.9254 34.375 14.0625 34.375Z" fill="#5E87CA"/>
<path d="M17.9688 28.9062H41.4062V30.4688H17.9688V28.9062Z" fill="#3B5892"/>
<path d="M17.9688 25.7812H41.4062V27.3438H17.9688V25.7812Z" fill="#3B5892"/>
<path d="M21.0938 22.6562H36.7188V24.2188H21.0938V22.6562Z" fill="#3B5892"/>
<path d="M38.2812 22.6562H41.4062V24.2188H38.2812V22.6562Z" fill="#3B5892"/>
<path d="M17.9688 42.9688H41.4062V44.5312H17.9688V42.9688Z" fill="#3B5892"/>
<path d="M17.9688 39.8438H41.4062V41.4062H17.9688V39.8438Z" fill="#3B5892"/>
<path d="M21.0938 36.7188H36.7188V38.2812H21.0938V36.7188Z" fill="#3B5892"/>
<path d="M38.2812 36.7188H41.4062V38.2812H38.2812V36.7188Z" fill="#3B5892"/>
<path d="M24.2188 12.5H39.8438V14.0625H24.2188V12.5Z" fill="#3B5892"/>
<path d="M6.25 34.375C5.8356 34.375 5.43817 34.5396 5.14515 34.8326C4.85212 35.1257 4.6875 35.5231 4.6875 35.9375V42.9688H11.7188C12.1332 42.9688 12.5306 42.8041 12.8236 42.5111C13.1166 42.2181 13.2812 41.8207 13.2812 41.4062V34.375H6.25Z" fill="#78A0D4"/>
<path d="M10.1562 4.6875H11.7188V6.25H10.1562V4.6875Z" fill="#78A0D4"/>
<path d="M13.2812 4.6875H14.8438V6.25H13.2812V4.6875Z" fill="#78A0D4"/>
<path d="M16.4062 4.6875H17.9688V6.25H16.4062V4.6875Z" fill="#78A0D4"/>
<path d="M19.5312 4.6875H21.0938V6.25H19.5312V4.6875Z" fill="#78A0D4"/>
<path d="M5.46875 12.5H7.03125V14.0625H5.46875V12.5Z" fill="#3B5892"/>
<path d="M8.59375 12.5H10.1562V14.0625H8.59375V12.5Z" fill="#3B5892"/>
<path d="M11.7188 12.5H13.2812V14.0625H11.7188V12.5Z" fill="#3B5892"/>
<path d="M14.8438 12.5H16.4062V14.0625H14.8438V12.5Z" fill="#3B5892"/>
</svg>
